#!OML:ASF H:\Terrain\Patient Classification 1\Terrain2\Thursday\justin.ASF
:FULLY-SPECIFIED
:DEGREES
2556
root -8.55169 17.5902 10.8053 1220.1 -88.5098 -147.995
lowerback 8.07387 0.98487 -0.305473
upperback 4.10365 1.17446 2.47568
thorax -0.342042 0.50037 2.62839
lowerneck -12.7158 -2.51284 -11.3325
upperneck 37.2078 -4.60912 6.54359
head 15.6788 -3.20436 3.91411
rclavicle 4.96962e-016 7.95139e-016
rhumerus -35.262 -15.0454 -76.0066
rradius 25.8322
rwrist -2.47543
rhand -16.9164 11.3863
rfingers 7.12502
rthumb 9.31601 -18.3878
lclavicle 4.96962e-016 7.95139e-016
lhumerus -33.9105 6.85618 84.9855
lradius 37.486
lwrist 5.90336
lhand -20.1812 22.2417
lfingers 7.12502
lthumb 6.16486 52.132
rfemur -14.8981 -8.86209 18.3235
rtibia 102.67
rfoot -14.8915 -0.408361
rtoes 9.09531
lfemur -5.49802 -3.4677 -19.8432
ltibia 21.1194
lfoot -1.87088 -12.2955
ltoes 22.226
2557
root -8.57982 17.6275 10.8102 1220.65 -88.3769 -148.336
lowerback 8.12868 0.96282 -0.0865465
upperback 4.05698 1.16238 2.47752
thorax -0.415656 0.498065 2.50682
lowerneck -12.6731 -2.51235 -11.2123
upperneck 36.9805 -4.5756 6.4386
head 15.543 -3.17428 3.84555
rclavicle -7.20594e-015 7.95139e-016
rhumerus -35.2335 -14.2957 -76.5036
rradius 26.3952
rwrist -3.09469
rhand -16.8307 11.822
rfingers 7.12502
rthumb 9.39868 -17.9484
lclavicle -7.20594e-015 7.95139e-016
lhumerus -34.3488 5.61683 85.368
lradius 39.1828
lwrist 6.89812
lhand -19.897 22.6007
lfingers 7.12502
lthumb 6.4393 52.4829
rfemur -16.1717 -9.52793 18.444
rtibia 103.055
rfoot -15.9357 -1.1475
rtoes 7.34114
lfemur -4.98833 -3.85015 -19.8501
ltibia 19.8874
lfoot -1.61167 -11.7029
ltoes 20.7182
2558
root -8.6133 17.6643 10.8101 1236.73 -88.2067 -164.288
lowerback 8.25906 1.06673 -0.509218
upperback 4.02501 1.27343 2.52012
thorax -0.535346 0.549278 2.77775
lowerneck -12.6745 -2.47397 -11.073
upperneck 36.7434 -4.35243 6.00971
head 15.3832 -3.10022 3.6648
rclavicle 5.11871e-015 -1.74931e-014
rhumerus -35.2419 -13.4851 -76.6595
rradius 26.9665
rwrist -3.26752
rhand -17.0227 12.2124
rfingers 7.12502
rthumb 9.21344 -17.5663
lclavicle 5.11871e-015 -1.74931e-014
lhumerus -35.1045 4.27697 85.9778
lradius 41.2989
lwrist 8.291
lhand -19.8566 23.1018
lfingers 7.12502
lthumb 6.47821 52.9828
rfemur -17.2458 -10.2026 17.9138
rtibia 103.273
rfoot -16.9738 -1.58689
rtoes 4.46599
lfemur -4.34874 -4.24951 -20.2942
ltibia 18.7331
lfoot -1.44563 -10.7892
ltoes 20.0389
2559
root -8.6452 17.6905 10.8071 1246.97 -88.1058 -174.432
lowerback 8.3543 1.08932 -0.723674
upperback 4.05965 1.28614 2.38606
thorax -0.554368 0.554071 2.7577
lowerneck -12.9005 -2.46384 -10.8527
upperneck 36.6805 -4.29534 5.85974
head 15.3877 -3.05402 3.56812
rclavicle -1.88845e-015 -6.36111e-015
rhumerus -35.1513 -13.1602 -77.0029
rradius 27.7466
rwrist -3.72502
rhand -17.548 13.7804
rfingers 7.12502
rthumb 8.70652 -16.02
lclavicle -1.88845e-015 -6.36111e-015
lhumerus -35.1063 3.71053 86.1116
lradius 42.0987
lwrist 8.7308
lhand -20.3958 22.8793
lfingers 7.12502
lthumb 5.95774 52.7756
rfemur -18.2745 -10.9528 17.6363
rtibia 103.35
rfoot -17.6993 -2.20906
rtoes 1.51519
lfemur -3.71501 -4.41826 -20.63
ltibia 17.5692
lfoot -1.06541 -10.2229
ltoes 20.5975
2560
root -8.67421 17.7122 10.8066 1243.44 -88.0206 -170.842
lowerback 8.4189 1.0143 -0.333416
upperback 4.1368 1.20875 2.27067
thorax -0.495961 0.518536 2.42485
lowerneck -12.9734 -2.48293 -10.7357
upperneck 36.4824 -4.37317 5.99872
head 15.3154 -3.03982 3.58939
rclavicle -1.28713e-014 -7.95139e-015
rhumerus -35.0212 -12.738 -77.6046
rradius 28.7284
rwrist -4.97744
rhand -17.8767 14.9971
rfingers 7.12502
rthumb 8.38933 -14.8162
lclavicle -1.28713e-014 -7.95139e-015
lhumerus -34.1349 4.66652 85.7262
lradius 41.0556
lwrist 7.56555
lhand -20.8072 21.6988
lfingers 7.12502
lthumb 5.56047 51.6058
rfemur -19.2435 -11.3746 18.1376
rtibia 103.226
rfoot -18.1953 -2.78352
rtoes 0.0403399
lfemur -3.0805 -4.47434 -20.4844
ltibia 16.4363
lfoot -0.73886 -9.9991
ltoes 20.4111
2561
root -8.70184 17.7369 10.8114 1245.09 -87.863 -172.321
lowerback 8.47528 1.04435 -0.301129
upperback 4.11471 1.25195 2.34934
thorax -0.552691 0.539914 2.48332
lowerneck -12.9478 -2.53273 -10.6995
upperneck 36.3079 -4.36203 5.79804
head 15.2179 -3.04618 3.49395
rclavicle 9.44227e-016 1.74931e-014
rhumerus -35.0767 -12.4945 -77.6965
rradius 29.7086
rwrist -5.99123
rhand -18.3024 12.9504
rfingers 7.12502
rthumb 7.97852 -16.879
lclavicle 9.44227e-016 1.74931e-014
lhumerus -34.2928 4.19805 86.1038
lradius 42.0776
lwrist 8.08611
lhand -21.068 21.7318
lfingers 7.12502
lthumb 5.30873 51.6453
rfemur -20.3717 -11.2098 18.2242
rtibia 103.251
rfoot -18.9773 -1.46987
rtoes 6.62416
lfemur -2.59208 -4.53354 -20.5304
ltibia 15.4156
lfoot -0.424184 -9.70326
ltoes 20.4392
2562
root -8.72529 17.7522 10.8115 1255.66 -87.7009 -182.686
lowerback 8.59512 1.11109 -0.840231
upperback 4.01388 1.30718 2.43971
thorax -0.73898 0.564089 2.87352
lowerneck -12.9691 -2.55568 -10.9364
upperneck 36.3 -4.30923 5.7601
head 15.2213 -3.06009 3.52828
rclavicle 4.82053e-015 2.78299e-014
rhumerus -35.1761 -12.1807 -77.6529
rradius 30.5613
rwrist -6.94208
rhand -19.2469 11.0299
rfingers 7.12502
rthumb 7.06682 -18.8321
lclavicle 4.82053e-015 2.78299e-014
lhumerus -34.4453 3.84569 86.5701
lradius 42.7717
lwrist 8.63855
lhand -21.8189 21.8793
lfingers 7.12502
lthumb 4.58368 51.8097
rfemur -21.6149 -12.0867 18.0739
rtibia 102.953
rfoot -18.9265 -3.32124
rtoes -3.76291
lfemur -2.21308 -4.60703 -20.9495
ltibia 14.4464
lfoot -0.0480341 -9.33017
ltoes 20.9919
2563
root -8.75232 17.7688 10.8051 1262.42 -87.484 -189.316
lowerback 8.74004 1.12874 -1.23136
upperback 3.94843 1.30377 2.45937
thorax -0.894817 0.561084 3.1127
lowerneck -13.0412 -2.49018 -11.2479
upperneck 36.3341 -4.22928 6.06862
head 15.2622 -3.03006 3.73128
rclavicle -3.47873e-015 5.56597e-015
rhumerus -35.1615 -11.4292 -77.8545
rradius 31.2775
rwrist -8.49724
rhand -19.8968 11.2244
rfingers 7.12502
rthumb 6.43942 -18.6577
lclavicle -3.47873e-015 5.56597e-015
lhumerus -34.6895 3.42513 86.8005
lradius 43.4893
lwrist 8.93275
lhand -22.555 22.2385
lfingers 7.12502
lthumb 3.87282 52.183
rfemur -22.7034 -12.2192 17.6984
rtibia 102.682
rfoot -19.2484 -1.67536
rtoes -0.244671
lfemur -1.75367 -4.58613 -21.2367
ltibia 13.4816
lfoot 0.285073 -9.06309
ltoes 20.9582
2564
root -8.78488 17.7773 10.8005 1265.64 -87.2921 -192.519
lowerback 8.85265 1.12006 -1.21491
upperback 4.01365 1.28776 2.30113
thorax -0.884593 0.552734 2.93972
lowerneck -13.2565 -2.44803 -11.0536
upperneck 36.328 -4.19639 6.09669
head 15.2992 -2.97932 3.71414
rclavicle 2.22142e-014 2.62396e-014
rhumerus -35.0444 -11.2426 -78.0782
rradius 31.9882
rwrist -9.99887
rhand -19.3012 11.7805
rfingers 7.12502
rthumb 7.01442 -18.0833
lclavicle 2.22142e-014 2.62396e-014
lhumerus -34.7616 3.01169 86.6893
lradius 44.2298
lwrist 8.78655
lhand -21.8033 22.3327
lfingers 7.12502
lthumb 4.59874 52.2628
rfemur -23.503 -12.2125 17.5256
rtibia 102.163
rfoot -19.3087 -0.494135
rtoes 3.49587
lfemur -1.23452 -4.49139 -21.411
ltibia 12.6962
lfoot 0.379678 -8.96704
ltoes 20.802
2565
root -8.81482 17.7828 10.7995 1263.57 -87.1482 -190.508
lowerback 9.04582 1.08676 -0.961234
upperback 4.13206 1.25367 2.24155
thorax -0.859824 0.534282 2.73652
lowerneck -13.4412 -2.46766 -10.7832
upperneck 36.2728 -4.1912 5.88941
head 15.3018 -2.95819 3.57536
rclavicle 1.635e-014 2.78299e-014
rhumerus -34.8013 -11.5925 -78.1105
rradius 32.5719
rwrist -10.6581
rhand -18.7309 12.8621
rfingers 7.12502
rthumb 7.56491 -16.9826
lclavicle 1.635e-014 2.78299e-014
lhumerus -34.5696 2.76918 86.6628
lradius 44.6488
lwrist 8.75724
lhand -21.0769 22.0666
lfingers 7.12502
lthumb 5.30012 51.9803
rfemur -24.2031 -12.2153 17.8073
rtibia 101.433
rfoot -19.1178 -0.462464
rtoes 4.05365
lfemur -0.735981 -4.31634 -21.3118
ltibia 12.1032
lfoot 0.319269 -9.10392
ltoes 20.4991
2566
root -8.84407 17.7925 10.7964 1258.79 -87.0303 -185.684
lowerback 9.19853 1.0266 -0.780563
upperback 4.1299 1.18675 2.40427
thorax -0.941851 0.500116 2.80822
lowerneck -13.4521 -2.44335 -10.7562
upperneck 36.2818 -4.07705 5.65535
head 15.2899 -2.93772 3.48857
rclavicle -5.41688e-015 -1.66979e-014
rhumerus -34.6655 -11.4328 -78.1005
rradius 33.1511
rwrist -11.0443
rhand -19.3885 13.5907
rfingers 7.12502
rthumb 6.9301 -16.2759
lclavicle -5.41688e-015 -1.66979e-014
lhumerus -34.5868 2.48872 86.8617
lradius 45.0093
lwrist 9.0631
lhand -21.2012 21.8428
lfingers 7.12502
lthumb 5.18011 51.7595
rfemur -24.8629 -12.1639 18.2652
rtibia 100.451
rfoot -18.777 -0.081164
rtoes 3.87451
lfemur -0.478713 -3.95922 -21.0069
ltibia 11.7452
lfoot 0.439338 -9.40964
ltoes 20.4685
